<svg xmlns="http://www.w3.org/2000/svg" viewBox="0 0 282.35 105.74"><defs><style>.a{fill:#a11d2d}</style></defs><path class="a" d="M9 80.18H0V3h16.18c7.88 0 14.25.22 19.43 3.89 4.85 3.45 7.88 9.82 7.88 17.37s-3 13.92-7.88 17.37c-5.18 3.67-11.44 3.89-19.43 3.89H9zm4.63-43c13.28 0 20-1.73 20-12.41 0-11.22-6.58-13.38-20-13.38H9v25.84zm83.81 43h-9.93l-10-23.64H47.37l-10 23.64h-9.96L62.37 0zM50.07 48.66h24.6l-12.3-28.37z"/><path class="a" d="M94.63 0l56.44 61.61V3h8.74v80.2l-56.44-61v58h-8.74z"/><path class="a" d="M227.9 70.35a41.83 41.83 0 01-58.38 0 39.12 39.12 0 01-12.09-28.59 39.36 39.36 0 0112.09-28.7 42.08 42.08 0 0158.38 0 39.29 39.29 0 0112 28.7 39.25 39.25 0 01-12 28.59zM221 64.2a31.14 31.14 0 009.28-22.44A31.65 31.65 0 00221 19.1a31.52 31.52 0 00-44.67 0A31.79 31.79 0 00167 41.76a31.29 31.29 0 009.28 22.44 31.26 31.26 0 0044.67 0z"/><path class="a" d="M280.88 58.49c0 14.13-9.82 23.63-24.71 23.63-12.2 0-20.72-6.48-23.63-17.92l8.31-4.1c2.26 9.39 7.55 14.25 15.32 14.25 9.28 0 15.43-5.94 15.43-14.35 0-6.91-4-12-12-15.43l-9.39-4C240 36.26 235 29.57 235 20.18c0-10.79 8.85-19 21.69-19 9.28 0 16.18 4 20 11.65l-7.55 4.86c-3.35-5.83-7.56-8.85-13.06-8.85-6.91 0-11.76 4.64-11.76 11.22 0 5.5 3.34 9.39 10.36 12.41l11 4.86c10.13 4.32 15.2 11.44 15.2 21.16z"/><path d="M226.84 42l-3.07-5.84-2.77 5.53-3.89-6.76-7.37 11-6.14-18.42-7 11.79-3.6-5.19s-2.21 3-3.79 5.26l-5.22-13-5.57 6.45-6 6.93-2.06 3.19c2.45 16.58 17.5 27.94 33.26 25.59 16.2-2.45 23.77-21.01 23.22-26.53z" fill="#b3b3b3"/><path d="M10.46 93v3.81a6.85 6.85 0 00-1.75-1.64 3.4 3.4 0 00-1.8-.46 3.57 3.57 0 00-2.69 1.13 4 4 0 00-1.07 2.84 4.1 4.1 0 001 2.87 3.49 3.49 0 002.67 1.12 3.64 3.64 0 001.82-.45 7.13 7.13 0 001.79-1.68v3.79a7.52 7.52 0 01-3.49.9 6.68 6.68 0 01-4.81-1.86 6.22 6.22 0 01-1.91-4.64 6.33 6.33 0 012-4.69A6.67 6.67 0 017 92.13a7.12 7.12 0 013.46.87zm30.17-.52h2.87v1.1a5.42 5.42 0 011.4-1.13 3.26 3.26 0 011.48-.32 4.64 4.64 0 012.37.74l-1.31 2.62a2.76 2.76 0 00-1.6-.58q-2.34 0-2.34 3.54v6.43h-2.87zm48.28 6.87H80a3.8 3.8 0 001 2.44 3 3 0 002.25.89 2.9 2.9 0 001.77-.51 7.3 7.3 0 001.57-1.89l2.41 1.35a9.49 9.49 0 01-1.18 1.64 6.28 6.28 0 01-1.34 1.12A5.37 5.37 0 0185 105a7.88 7.88 0 01-1.8.2 5.84 5.84 0 01-4.46-1.78A6.71 6.71 0 0177 98.69a6.84 6.84 0 011.63-4.76 5.63 5.63 0 014.37-1.8 5.56 5.56 0 014.33 1.75 6.86 6.86 0 011.58 4.8zM86 97a2.74 2.74 0 00-2.89-2.29 2.88 2.88 0 00-1 .16 2.71 2.71 0 00-.83.46 2.94 2.94 0 00-.65.71 3.3 3.3 0 00-.4 1zm42.58-4.52h2.88v12.4h-2.88v-1.3a5.5 5.5 0 01-8.06-.2 6.88 6.88 0 01-1.67-4.74 6.67 6.67 0 011.67-4.64 5.37 5.37 0 018.06-.08zm-6.8 6.16a4.33 4.33 0 001 2.9 3.13 3.13 0 002.47 1.14 3.32 3.32 0 002.58-1.1 4.71 4.71 0 000-5.75 3.26 3.26 0 00-2.55-1.11 3.15 3.15 0 00-2.47 1.12 4.09 4.09 0 00-1.03 2.8zm43.64-3.49v9.73h-2.86v-9.73h-1.23v-2.67h1.23v-4.55h2.86v4.55h2.23v2.67zm31.14-7.83a1.79 1.79 0 01.55-1.3 1.76 1.76 0 011.31-.55 1.8 1.8 0 011.33.55 1.76 1.76 0 01.54 1.31 1.8 1.8 0 01-.54 1.32 1.86 1.86 0 01-2.64 0 1.83 1.83 0 01-.55-1.33zm3.3 5.16v12.4H197v-12.4zm32.57 0l3.21 7 3.19-7h3.23l-6.45 13.26-6.39-13.26zm49.81 6.87h-8.89a3.8 3.8 0 001 2.44 3.06 3.06 0 002.26.89 2.94 2.94 0 001.77-.51 7.1 7.1 0 001.56-1.89l2.42 1.35a9 9 0 01-1.18 1.64 6 6 0 01-1.34 1.12 5.25 5.25 0 01-1.54.65 7.79 7.79 0 01-1.79.2 5.82 5.82 0 01-4.46-1.78 6.67 6.67 0 01-1.69-4.77 6.85 6.85 0 011.64-4.76 6.19 6.19 0 018.68-.05 6.81 6.81 0 011.58 4.8zM279.3 97a2.75 2.75 0 00-2.89-2.29 2.94 2.94 0 00-1 .16 2.89 2.89 0 00-1.41 1.18 3.31 3.31 0 00-.41 1z" fill="#231f20"/></svg>